<?xml version="1.0" encoding="UTF-8" standalone="no"?>
<!DOCTYPE svg PUBLIC "-//W3C//DTD SVG 1.1//EN"
 "http://www.w3.org/Graphics/SVG/1.1/DTD/svg11.dtd">
<!-- Generated by graphviz version 14.1.1 (20251213.1925)
 -->
<!-- Title: InheritanceTree Pages: 1 -->
<svg width="384pt" height="285pt"
 viewBox="0.00 0.00 384.00 285.00" xmlns="http://www.w3.org/2000/svg" xmlns:xlink="http://www.w3.org/1999/xlink">
<g id="graph0" class="graph" transform="scale(1 1) rotate(0) translate(4 280.5)">
<title>InheritanceTree</title>
<polygon fill="white" stroke="none" points="-4,4 -4,-280.5 380.25,-280.5 380.25,4 -4,4"/>
<text xml:space="preserve" text-anchor="middle" x="188.12" y="-7.2" font-family="Times New Roman,serif" font-size="14.00">simple_jwt &#45; Inheritance Hierarchy</text>
<!-- SIMPLE_JWT -->
<g id="node1" class="node">
<title>SIMPLE_JWT</title>
<path fill="none" stroke="black" d="M111.25,-60.5C111.25,-60.5 36.75,-60.5 36.75,-60.5 30.75,-60.5 24.75,-54.5 24.75,-48.5 24.75,-48.5 24.75,-36.5 24.75,-36.5 24.75,-30.5 30.75,-24.5 36.75,-24.5 36.75,-24.5 111.25,-24.5 111.25,-24.5 117.25,-24.5 123.25,-30.5 123.25,-36.5 123.25,-36.5 123.25,-48.5 123.25,-48.5 123.25,-54.5 117.25,-60.5 111.25,-60.5"/>
<text xml:space="preserve" text-anchor="middle" x="74" y="-37.45" font-family="Times New Roman,serif" font-size="14.00">SIMPLE_JWT</text>
</g>
<!-- SIMPLE_JWT_QUICK -->
<g id="node2" class="node">
<title>SIMPLE_JWT_QUICK</title>
<path fill="none" stroke="black" d="M136,-132.5C136,-132.5 12,-132.5 12,-132.5 6,-132.5 0,-126.5 0,-120.5 0,-120.5 0,-108.5 0,-108.5 0,-102.5 6,-96.5 12,-96.5 12,-96.5 136,-96.5 136,-96.5 142,-96.5 148,-102.5 148,-108.5 148,-108.5 148,-120.5 148,-120.5 148,-126.5 142,-132.5 136,-132.5"/>
<text xml:space="preserve" text-anchor="middle" x="74" y="-109.45" font-family="Times New Roman,serif" font-size="14.00">SIMPLE_JWT_QUICK</text>
</g>
<!-- LIB_TESTS -->
<g id="node3" class="node">
<title>LIB_TESTS</title>
<path fill="none" stroke="black" d="M104.12,-204.5C104.12,-204.5 43.88,-204.5 43.88,-204.5 37.88,-204.5 31.88,-198.5 31.88,-192.5 31.88,-192.5 31.88,-180.5 31.88,-180.5 31.88,-174.5 37.88,-168.5 43.88,-168.5 43.88,-168.5 104.12,-168.5 104.12,-168.5 110.12,-168.5 116.12,-174.5 116.12,-180.5 116.12,-180.5 116.12,-192.5 116.12,-192.5 116.12,-198.5 110.12,-204.5 104.12,-204.5"/>
<text xml:space="preserve" text-anchor="middle" x="74" y="-181.45" font-family="Times New Roman,serif" font-size="14.00">LIB_TESTS</text>
</g>
<!-- TEST_SET_BASE -->
<g id="node4" class="node">
<title>TEST_SET_BASE</title>
<path fill="none" stroke="black" d="M364.25,-204.5C364.25,-204.5 268,-204.5 268,-204.5 262,-204.5 256,-198.5 256,-192.5 256,-192.5 256,-180.5 256,-180.5 256,-174.5 262,-168.5 268,-168.5 268,-168.5 364.25,-168.5 364.25,-168.5 370.25,-168.5 376.25,-174.5 376.25,-180.5 376.25,-180.5 376.25,-192.5 376.25,-192.5 376.25,-198.5 370.25,-204.5 364.25,-204.5"/>
<text xml:space="preserve" text-anchor="middle" x="316.12" y="-181.45" font-family="Times New Roman,serif" font-size="14.00">TEST_SET_BASE</text>
</g>
<!-- LIB_TESTS&#45;&gt;TEST_SET_BASE -->
<g id="edge1" class="edge">
<title>LIB_TESTS&#45;&gt;TEST_SET_BASE</title>
<path fill="none" stroke="black" d="M116.45,-186.5C116.45,-186.5 244,-186.5 244,-186.5"/>
<polygon fill="none" stroke="black" points="244,-190 254,-186.5 244,-183 244,-190"/>
</g>
<!-- TEST_APP -->
<g id="node5" class="node">
<title>TEST_APP</title>
<path fill="none" stroke="black" d="M101.88,-276.5C101.88,-276.5 46.12,-276.5 46.12,-276.5 40.12,-276.5 34.12,-270.5 34.12,-264.5 34.12,-264.5 34.12,-252.5 34.12,-252.5 34.12,-246.5 40.12,-240.5 46.12,-240.5 46.12,-240.5 101.88,-240.5 101.88,-240.5 107.88,-240.5 113.88,-246.5 113.88,-252.5 113.88,-252.5 113.88,-264.5 113.88,-264.5 113.88,-270.5 107.88,-276.5 101.88,-276.5"/>
<text xml:space="preserve" text-anchor="middle" x="74" y="-253.45" font-family="Times New Roman,serif" font-size="14.00">TEST_APP</text>
</g>
</g>
</svg>
