<?xml version="1.0" encoding="UTF-8" standalone="no"?>
<!DOCTYPE svg PUBLIC "-//W3C//DTD SVG 1.1//EN"
 "http://www.w3.org/Graphics/SVG/1.1/DTD/svg11.dtd">
<!-- Generated by graphviz version 14.1.1 (20251213.1925)
 -->
<!-- Title: ContractCoverage Pages: 1 -->
<svg width="816pt" height="795pt"
 viewBox="48.00 48.00 768.00 747.00" xmlns="http://www.w3.org/2000/svg" xmlns:xlink="http://www.w3.org/1999/xlink">
<g id="graph0" class="graph" transform="scale(1.21047 1.21047) rotate(0) translate(43.65 612.78)">
<title>ContractCoverage</title>
<polygon fill="white" stroke="none" points="-4,4 -4,-573.12 590.81,-573.12 590.81,4 -4,4"/>
<text xml:space="preserve" text-anchor="middle" x="293.41" y="-555.62" font-family="Times New Roman,serif" font-size="10.00">simple_jwt &#45; Contract Coverage</text>
<g id="clust1" class="cluster">
<title>cluster_SIMPLE_JWT</title>
<polygon fill="white" stroke="black" points="374.13,-241.88 374.13,-434.38 576.12,-434.38 576.12,-241.88 374.13,-241.88"/>
<text xml:space="preserve" text-anchor="middle" x="475.12" y="-417.07" font-family="Times New Roman,serif" font-size="14.00">SIMPLE_JWT</text>
</g>
<g id="clust2" class="cluster">
<title>cluster_SIMPLE_JWT_QUICK</title>
<polygon fill="white" stroke="black" points="88.13,-21.87 88.13,-316.37 322.13,-316.37 322.13,-21.87 88.13,-21.87"/>
<text xml:space="preserve" text-anchor="middle" x="205.13" y="-299.07" font-family="Times New Roman,serif" font-size="14.00">SIMPLE_JWT_QUICK</text>
</g>
<g id="clust3" class="cluster">
<title>cluster_LIB_TESTS</title>
<polygon fill="white" stroke="black" points="0,-373.88 0,-434.38 114.25,-434.38 114.25,-373.88 0,-373.88"/>
<text xml:space="preserve" text-anchor="middle" x="57.13" y="-417.07" font-family="Times New Roman,serif" font-size="14.00">LIB_TESTS</text>
</g>
<g id="clust4" class="cluster">
<title>cluster_TEST_APP</title>
<polygon fill="white" stroke="black" points="154.12,-374.38 154.12,-549.88 328.12,-549.88 328.12,-374.38 154.12,-374.38"/>
<text xml:space="preserve" text-anchor="middle" x="241.12" y="-532.58" font-family="Times New Roman,serif" font-size="14.00">TEST_APP</text>
</g>
<g id="clust5" class="cluster">
<title>cluster_legend</title>
<polygon fill="lightyellow" stroke="black" points="373.44,0 373.44,-188.25 586.81,-188.25 586.81,0 373.44,0"/>
<text xml:space="preserve" text-anchor="middle" x="480.12" y="-174.75" font-family="Times New Roman,serif" font-size="10.00">Legend</text>
</g>
<!-- SIMPLE_JWT_make -->
<g id="node1" class="node">
<title>SIMPLE_JWT_make</title>
<polygon fill="palegreen" stroke="black" points="428.13,-277.88 374.13,-277.88 374.13,-241.88 428.13,-241.88 428.13,-277.88"/>
<text xml:space="preserve" text-anchor="middle" x="401.13" y="-256" font-family="Times New Roman,serif" font-size="10.00">make</text>
</g>
<!-- SIMPLE_JWT_set_clock_skew -->
<g id="node2" class="node">
<title>SIMPLE_JWT_set_clock_skew</title>
<polygon fill="lightgray" stroke="black" points="496.75,-337.88 415.5,-337.88 415.5,-301.88 496.75,-301.88 496.75,-337.88"/>
<text xml:space="preserve" text-anchor="middle" x="456.12" y="-316" font-family="Times New Roman,serif" font-size="10.00">set_clock_skew</text>
</g>
<!-- SIMPLE_JWT_non_negative -->
<g id="node3" class="node">
<title>SIMPLE_JWT_non_negative</title>
<polygon fill="lightgray" stroke="black" points="566.25,-397.87 494,-397.87 494,-361.87 566.25,-361.87 566.25,-397.87"/>
<text xml:space="preserve" text-anchor="middle" x="530.13" y="-376" font-family="Times New Roman,serif" font-size="10.00">non_negative</text>
</g>
<!-- SIMPLE_JWT_clock_skew -->
<g id="node4" class="node">
<title>SIMPLE_JWT_clock_skew</title>
<polygon fill="lightgray" stroke="black" points="474.5,-409.88 409.75,-409.88 409.75,-373.88 474.5,-373.88 474.5,-409.88"/>
<text xml:space="preserve" text-anchor="middle" x="442.12" y="-388" font-family="Times New Roman,serif" font-size="10.00">clock_skew</text>
</g>
<!-- SIMPLE_JWT_a_seconds -->
<g id="node5" class="node">
<title>SIMPLE_JWT_a_seconds</title>
<polygon fill="lightgray" stroke="black" points="576.12,-301.88 518.12,-301.88 518.12,-265.88 576.12,-265.88 576.12,-301.88"/>
<text xml:space="preserve" text-anchor="middle" x="547.12" y="-280" font-family="Times New Roman,serif" font-size="10.00">a_seconds</text>
</g>
<!-- SIMPLE_JWT_QUICK_make -->
<g id="node6" class="node">
<title>SIMPLE_JWT_QUICK_make</title>
<polygon fill="lightgray" stroke="black" points="304.13,-57.87 250.13,-57.87 250.13,-21.87 304.13,-21.87 304.13,-57.87"/>
<text xml:space="preserve" text-anchor="middle" x="277.13" y="-36" font-family="Times New Roman,serif" font-size="10.00">make</text>
</g>
<!-- SIMPLE_JWT_QUICK_secret_not_empty -->
<g id="node7" class="node">
<title>SIMPLE_JWT_QUICK_secret_not_empty</title>
<polygon fill="lightgray" stroke="black" points="212.5,-153.87 123.75,-153.87 123.75,-117.87 212.5,-117.87 212.5,-153.87"/>
<text xml:space="preserve" text-anchor="middle" x="168.12" y="-132" font-family="Times New Roman,serif" font-size="10.00">secret_not_empty</text>
</g>
<!-- SIMPLE_JWT_QUICK_a_secret -->
<g id="node8" class="node">
<title>SIMPLE_JWT_QUICK_a_secret</title>
<polygon fill="lightgray" stroke="black" points="166.13,-291.87 112.13,-291.87 112.13,-255.87 166.13,-255.87 166.13,-291.87"/>
<text xml:space="preserve" text-anchor="middle" x="139.13" y="-270" font-family="Times New Roman,serif" font-size="10.00">a_secret</text>
</g>
<!-- SIMPLE_JWT_QUICK_is_empty -->
<g id="node9" class="node">
<title>SIMPLE_JWT_QUICK_is_empty</title>
<polygon fill="lightgray" stroke="black" points="244.12,-291.87 190.12,-291.87 190.12,-255.87 244.12,-255.87 244.12,-291.87"/>
<text xml:space="preserve" text-anchor="middle" x="217.12" y="-270" font-family="Times New Roman,serif" font-size="10.00">is_empty</text>
</g>
<!-- SIMPLE_JWT_QUICK_secret_length -->
<g id="node10" class="node">
<title>SIMPLE_JWT_QUICK_secret_length</title>
<polygon fill="lightgray" stroke="black" points="188.5,-231.87 117.75,-231.87 117.75,-195.87 188.5,-195.87 188.5,-231.87"/>
<text xml:space="preserve" text-anchor="middle" x="153.13" y="-210" font-family="Times New Roman,serif" font-size="10.00">secret_length</text>
</g>
<!-- SIMPLE_JWT_QUICK_count -->
<g id="node11" class="node">
<title>SIMPLE_JWT_QUICK_count</title>
<polygon fill="lightgray" stroke="black" points="142.12,-93.87 88.13,-93.87 88.13,-57.87 142.12,-57.87 142.12,-93.87"/>
<text xml:space="preserve" text-anchor="middle" x="115.13" y="-72" font-family="Times New Roman,serif" font-size="10.00">count</text>
</g>
<!-- SIMPLE_JWT_QUICK_jwt -->
<g id="node12" class="node">
<title>SIMPLE_JWT_QUICK_jwt</title>
<polygon fill="lightgray" stroke="black" points="322.13,-273.87 268.13,-273.87 268.13,-237.87 322.13,-237.87 322.13,-273.87"/>
<text xml:space="preserve" text-anchor="middle" x="295.13" y="-252" font-family="Times New Roman,serif" font-size="10.00">jwt</text>
</g>
<!-- SIMPLE_JWT_QUICK_set_clock_skew -->
<g id="node13" class="node">
<title>SIMPLE_JWT_QUICK_set_clock_skew</title>
<polygon fill="lightgray" stroke="black" points="288.75,-213.87 207.5,-213.87 207.5,-177.87 288.75,-177.87 288.75,-213.87"/>
<text xml:space="preserve" text-anchor="middle" x="248.13" y="-192" font-family="Times New Roman,serif" font-size="10.00">set_clock_skew</text>
</g>
<!-- SIMPLE_JWT_QUICK_logger -->
<g id="node14" class="node">
<title>SIMPLE_JWT_QUICK_logger</title>
<polygon fill="lightgray" stroke="black" points="226.12,-57.87 172.12,-57.87 172.12,-21.87 226.12,-21.87 226.12,-57.87"/>
<text xml:space="preserve" text-anchor="middle" x="199.12" y="-36" font-family="Times New Roman,serif" font-size="10.00">logger</text>
</g>
<!-- SIMPLE_JWT_QUICK_debug_log -->
<g id="node15" class="node">
<title>SIMPLE_JWT_QUICK_debug_log</title>
<polygon fill="lightgray" stroke="black" points="292.25,-117.87 232,-117.87 232,-81.87 292.25,-81.87 292.25,-117.87"/>
<text xml:space="preserve" text-anchor="middle" x="262.12" y="-96" font-family="Times New Roman,serif" font-size="10.00">debug_log</text>
</g>
<!-- LIB_TESTS_test_create_token_basic -->
<g id="node16" class="node">
<title>LIB_TESTS_test_create_token_basic</title>
<polygon fill="lightgray" stroke="black" points="114.25,-409.88 0,-409.88 0,-373.88 114.25,-373.88 114.25,-409.88"/>
<text xml:space="preserve" text-anchor="middle" x="57.13" y="-388" font-family="Times New Roman,serif" font-size="10.00">test_create_token_basic</text>
</g>
<!-- TEST_APP_make -->
<g id="node17" class="node">
<title>TEST_APP_make</title>
<polygon fill="lightcoral" stroke="black" points="208.12,-410.38 154.12,-410.38 154.12,-374.38 208.12,-374.38 208.12,-410.38"/>
<text xml:space="preserve" text-anchor="middle" x="181.12" y="-388.5" font-family="Times New Roman,serif" font-size="10.00">make</text>
</g>
<!-- TEST_APP_tests -->
<g id="node18" class="node">
<title>TEST_APP_tests</title>
<polygon fill="lightgray" stroke="black" points="253.13,-465.37 199.13,-465.37 199.13,-429.37 253.13,-429.37 253.13,-465.37"/>
<text xml:space="preserve" text-anchor="middle" x="226.13" y="-443.5" font-family="Times New Roman,serif" font-size="10.00">tests</text>
</g>
<!-- TEST_APP_passed -->
<g id="node19" class="node">
<title>TEST_APP_passed</title>
<polygon fill="lightgray" stroke="black" points="318.13,-520.38 264.13,-520.38 264.13,-484.38 318.13,-484.38 318.13,-520.38"/>
<text xml:space="preserve" text-anchor="middle" x="291.13" y="-498.5" font-family="Times New Roman,serif" font-size="10.00">passed</text>
</g>
<!-- TEST_APP_failed -->
<g id="node20" class="node">
<title>TEST_APP_failed</title>
<polygon fill="lightgray" stroke="black" points="243.12,-525.38 189.12,-525.38 189.12,-489.38 243.12,-489.38 243.12,-525.38"/>
<text xml:space="preserve" text-anchor="middle" x="216.12" y="-503.5" font-family="Times New Roman,serif" font-size="10.00">failed</text>
</g>
<!-- TEST_APP_run_test -->
<g id="node21" class="node">
<title>TEST_APP_run_test</title>
<polygon fill="lightcoral" stroke="black" points="328.12,-440.38 274.12,-440.38 274.12,-404.38 328.12,-404.38 328.12,-440.38"/>
<text xml:space="preserve" text-anchor="middle" x="301.12" y="-418.5" font-family="Times New Roman,serif" font-size="10.00">run_test</text>
</g>
<!-- legend_full -->
<g id="node22" class="node">
<title>legend_full</title>
<polygon fill="palegreen" stroke="black" points="576.31,-105 462.06,-105 462.06,-64 576.31,-64 576.31,-105"/>
<text xml:space="preserve" text-anchor="middle" x="519.19" y="-87.7" font-family="Times New Roman,serif" font-size="14.00">Full Contract</text>
<text xml:space="preserve" text-anchor="middle" x="519.19" y="-71.2" font-family="Times New Roman,serif" font-size="14.00">(require + ensure)</text>
</g>
<!-- legend_partial -->
<g id="node23" class="node">
<title>legend_partial</title>
<polygon fill="khaki" stroke="black" points="586.81,-41 469.56,-41 469.56,0 586.81,0 586.81,-41"/>
<text xml:space="preserve" text-anchor="middle" x="528.19" y="-23.7" font-family="Times New Roman,serif" font-size="14.00">Partial Contract</text>
<text xml:space="preserve" text-anchor="middle" x="528.19" y="-7.2" font-family="Times New Roman,serif" font-size="14.00">(require or ensure)</text>
</g>
<!-- legend_none -->
<g id="node24" class="node">
<title>legend_none</title>
<polygon fill="lightcoral" stroke="black" points="568.56,-163.5 485.81,-163.5 485.81,-127.5 568.56,-127.5 568.56,-163.5"/>
<text xml:space="preserve" text-anchor="middle" x="527.19" y="-140.45" font-family="Times New Roman,serif" font-size="14.00">No Contract</text>
</g>
<!-- legend_attr -->
<g id="node25" class="node">
<title>legend_attr</title>
<polygon fill="lightgray" stroke="black" points="462.56,-169 397.81,-169 397.81,-128 462.56,-128 462.56,-169"/>
<text xml:space="preserve" text-anchor="middle" x="430.19" y="-151.7" font-family="Times New Roman,serif" font-size="14.00">Attribute</text>
<text xml:space="preserve" text-anchor="middle" x="430.19" y="-135.2" font-family="Times New Roman,serif" font-size="14.00">(n/a)</text>
</g>
<!-- legend_stats -->
<g id="node26" class="node">
<title>legend_stats</title>
<polygon fill="white" stroke="black" points="432.94,-107 373.44,-107 373.44,0 438.94,0 438.94,-101 432.94,-107"/>
<polyline fill="none" stroke="black" points="432.94,-107 432.94,-101"/>
<polyline fill="none" stroke="black" points="438.94,-101 432.94,-101"/>
<text xml:space="preserve" text-anchor="middle" x="406.19" y="-89.7" font-family="Times New Roman,serif" font-size="14.00">Statistics</text>
<text xml:space="preserve" text-anchor="middle" x="406.19" y="-73.2" font-family="Times New Roman,serif" font-size="14.00">Full: 1</text>
<text xml:space="preserve" text-anchor="middle" x="406.19" y="-56.7" font-family="Times New Roman,serif" font-size="14.00">Partial: 0</text>
<text xml:space="preserve" text-anchor="middle" x="406.19" y="-40.2" font-family="Times New Roman,serif" font-size="14.00">None: 2</text>
<text xml:space="preserve" text-anchor="middle" x="406.19" y="-23.7" font-family="Times New Roman,serif" font-size="14.00">Attr: 22</text>
<text xml:space="preserve" text-anchor="middle" x="406.19" y="-7.2" font-family="Times New Roman,serif" font-size="14.00">Total: 25</text>
</g>
</g>
</svg>
