<?xml version="1.0" encoding="UTF-8" standalone="no"?>
<!DOCTYPE svg PUBLIC "-//W3C//DTD SVG 1.1//EN"
 "http://www.w3.org/Graphics/SVG/1.1/DTD/svg11.dtd">
<!-- Generated by graphviz version 14.1.1 (20251213.1925)
 -->
<!-- Title: Dependencies Pages: 1 -->
<svg width="336pt" height="645pt"
 viewBox="0.00 0.00 336.00 645.00" xmlns="http://www.w3.org/2000/svg" xmlns:xlink="http://www.w3.org/1999/xlink">
<g id="graph0" class="graph" transform="scale(1 1) rotate(0) translate(4 640.5)">
<title>Dependencies</title>
<polygon fill="white" stroke="none" points="-4,4 -4,-640.5 331.5,-640.5 331.5,4 -4,4"/>
<text xml:space="preserve" text-anchor="middle" x="163.75" y="-7.2" font-family="Times New Roman,serif" font-size="14.00">simple_jwt &#45; Dependencies</text>
<!-- simple_jwt -->
<g id="node1" class="node">
<title>simple_jwt</title>
<polygon fill="lightblue" stroke="black" points="76.75,-348.5 0,-348.5 0,-312.5 76.75,-312.5 76.75,-348.5"/>
<text xml:space="preserve" text-anchor="middle" x="38.38" y="-325.45" font-family="Times New Roman,serif" font-size="14.00">simple_jwt</text>
</g>
<!-- simple_datetime -->
<g id="node2" class="node">
<title>simple_datetime</title>
<polygon fill="lightblue" stroke="black" points="327.5,-636.5 220.75,-636.5 220.75,-600.5 327.5,-600.5 327.5,-636.5"/>
<text xml:space="preserve" text-anchor="middle" x="274.12" y="-613.45" font-family="Times New Roman,serif" font-size="14.00">simple_datetime</text>
</g>
<!-- simple_jwt&#45;&gt;simple_datetime -->
<g id="edge1" class="edge">
<title>simple_jwt&#45;&gt;simple_datetime</title>
<path fill="none" stroke="black" stroke-dasharray="5,2" d="M15.5,-348.95C15.5,-412.52 15.5,-618.5 15.5,-618.5 15.5,-618.5 209.02,-618.5 209.02,-618.5"/>
<polygon fill="black" stroke="black" points="209.02,-622 219.02,-618.5 209.02,-615 209.02,-622"/>
</g>
<!-- simple_base64 -->
<g id="node3" class="node">
<title>simple_base64</title>
<polygon fill="lightblue" stroke="black" points="322.62,-564.5 225.62,-564.5 225.62,-528.5 322.62,-528.5 322.62,-564.5"/>
<text xml:space="preserve" text-anchor="middle" x="274.12" y="-541.45" font-family="Times New Roman,serif" font-size="14.00">simple_base64</text>
</g>
<!-- simple_jwt&#45;&gt;simple_base64 -->
<g id="edge2" class="edge">
<title>simple_jwt&#45;&gt;simple_base64</title>
<path fill="none" stroke="black" stroke-dasharray="5,2" d="M30.5,-348.92C30.5,-401.15 30.5,-546.5 30.5,-546.5 30.5,-546.5 213.9,-546.5 213.9,-546.5"/>
<polygon fill="black" stroke="black" points="213.9,-550 223.9,-546.5 213.9,-543 213.9,-550"/>
</g>
<!-- simple_hash -->
<g id="node4" class="node">
<title>simple_hash</title>
<polygon fill="lightblue" stroke="black" points="316.25,-492.5 232,-492.5 232,-456.5 316.25,-456.5 316.25,-492.5"/>
<text xml:space="preserve" text-anchor="middle" x="274.12" y="-469.45" font-family="Times New Roman,serif" font-size="14.00">simple_hash</text>
</g>
<!-- simple_jwt&#45;&gt;simple_hash -->
<g id="edge3" class="edge">
<title>simple_jwt&#45;&gt;simple_hash</title>
<path fill="none" stroke="black" stroke-dasharray="5,2" d="M46.5,-348.74C46.5,-387.49 46.5,-474.5 46.5,-474.5 46.5,-474.5 220.06,-474.5 220.06,-474.5"/>
<polygon fill="black" stroke="black" points="220.06,-478 230.06,-474.5 220.06,-471 220.06,-478"/>
</g>
<!-- simple_uuid -->
<g id="node5" class="node">
<title>simple_uuid</title>
<polygon fill="lightblue" stroke="black" points="315.88,-420.5 232.38,-420.5 232.38,-384.5 315.88,-384.5 315.88,-420.5"/>
<text xml:space="preserve" text-anchor="middle" x="274.12" y="-397.45" font-family="Times New Roman,serif" font-size="14.00">simple_uuid</text>
</g>
<!-- simple_jwt&#45;&gt;simple_uuid -->
<g id="edge4" class="edge">
<title>simple_jwt&#45;&gt;simple_uuid</title>
<path fill="none" stroke="black" stroke-dasharray="5,2" d="M61.5,-348.67C61.5,-370 61.5,-402.5 61.5,-402.5 61.5,-402.5 220.6,-402.5 220.6,-402.5"/>
<polygon fill="black" stroke="black" points="220.6,-406 230.6,-402.5 220.6,-399 220.6,-406"/>
</g>
<!-- simple_logger -->
<g id="node6" class="node">
<title>simple_logger</title>
<polygon fill="lightblue" stroke="black" points="321.12,-348.5 227.12,-348.5 227.12,-312.5 321.12,-312.5 321.12,-348.5"/>
<text xml:space="preserve" text-anchor="middle" x="274.12" y="-325.45" font-family="Times New Roman,serif" font-size="14.00">simple_logger</text>
</g>
<!-- simple_jwt&#45;&gt;simple_logger -->
<g id="edge5" class="edge">
<title>simple_jwt&#45;&gt;simple_logger</title>
<path fill="none" stroke="black" stroke-dasharray="5,2" d="M77.04,-330.5C77.04,-330.5 215.39,-330.5 215.39,-330.5"/>
<polygon fill="black" stroke="black" points="215.39,-334 225.39,-330.5 215.39,-327 215.39,-334"/>
</g>
<!-- simple_testing -->
<g id="node7" class="node">
<title>simple_testing</title>
<polygon fill="lightblue" stroke="black" points="321.88,-276.5 226.38,-276.5 226.38,-240.5 321.88,-240.5 321.88,-276.5"/>
<text xml:space="preserve" text-anchor="middle" x="274.12" y="-253.45" font-family="Times New Roman,serif" font-size="14.00">simple_testing</text>
</g>
<!-- simple_jwt&#45;&gt;simple_testing -->
<g id="edge6" class="edge">
<title>simple_jwt&#45;&gt;simple_testing</title>
<path fill="none" stroke="black" stroke-dasharray="5,2" d="M61.5,-312.33C61.5,-291 61.5,-258.5 61.5,-258.5 61.5,-258.5 214.36,-258.5 214.36,-258.5"/>
<polygon fill="black" stroke="black" points="214.36,-262 224.36,-258.5 214.36,-255 214.36,-262"/>
</g>
<!-- base -->
<g id="node8" class="node">
<title>base</title>
<polygon fill="lightgray" stroke="black" points="301.12,-204.5 247.12,-204.5 247.12,-168.5 301.12,-168.5 301.12,-204.5"/>
<text xml:space="preserve" text-anchor="middle" x="274.12" y="-181.45" font-family="Times New Roman,serif" font-size="14.00">base</text>
</g>
<!-- simple_jwt&#45;&gt;base -->
<g id="edge7" class="edge">
<title>simple_jwt&#45;&gt;base</title>
<path fill="none" stroke="black" stroke-dasharray="5,2" d="M46.5,-312.26C46.5,-273.51 46.5,-186.5 46.5,-186.5 46.5,-186.5 235.15,-186.5 235.15,-186.5"/>
<polygon fill="black" stroke="black" points="235.15,-190 245.15,-186.5 235.15,-183 235.15,-190"/>
</g>
<!-- json -->
<g id="node9" class="node">
<title>json</title>
<polygon fill="lightgray" stroke="black" points="301.12,-132.5 247.12,-132.5 247.12,-96.5 301.12,-96.5 301.12,-132.5"/>
<text xml:space="preserve" text-anchor="middle" x="274.12" y="-109.45" font-family="Times New Roman,serif" font-size="14.00">json</text>
</g>
<!-- simple_jwt&#45;&gt;json -->
<g id="edge8" class="edge">
<title>simple_jwt&#45;&gt;json</title>
<path fill="none" stroke="black" stroke-dasharray="5,2" d="M30.5,-312.08C30.5,-259.85 30.5,-114.5 30.5,-114.5 30.5,-114.5 235.14,-114.5 235.14,-114.5"/>
<polygon fill="black" stroke="black" points="235.14,-118 245.14,-114.5 235.14,-111 235.14,-118"/>
</g>
<!-- testing -->
<g id="node10" class="node">
<title>testing</title>
<polygon fill="lightgray" stroke="black" points="301.12,-60.5 247.12,-60.5 247.12,-24.5 301.12,-24.5 301.12,-60.5"/>
<text xml:space="preserve" text-anchor="middle" x="274.12" y="-37.45" font-family="Times New Roman,serif" font-size="14.00">testing</text>
</g>
<!-- simple_jwt&#45;&gt;testing -->
<g id="edge9" class="edge">
<title>simple_jwt&#45;&gt;testing</title>
<path fill="none" stroke="black" stroke-dasharray="5,2" d="M15.5,-312.05C15.5,-248.48 15.5,-42.5 15.5,-42.5 15.5,-42.5 235.42,-42.5 235.42,-42.5"/>
<polygon fill="black" stroke="black" points="235.42,-46 245.42,-42.5 235.42,-39 235.42,-46"/>
</g>
</g>
</svg>
